<?xml version="1.0" standalone="no"?>
<!DOCTYPE svg PUBLIC "-//W3C//DTD SVG 20010904//EN"
 "http://www.w3.org/TR/2001/REC-SVG-20010904/DTD/svg10.dtd">
<svg version="1.0" xmlns="http://www.w3.org/2000/svg"
 width="300.000000pt" height="98.000000pt" viewBox="0 0 300.000000 98.000000"
 preserveAspectRatio="xMidYMid meet">
<metadata>
Created by potrace 1.10, written by Peter Selinger 2001-2011
</metadata>
<g transform="translate(0.000000,98.000000) scale(0.100000,-0.100000)"
fill="#000000" stroke="none">
<path d="M2260 703 l-45 -4 0 -147 c0 -81 -4 -189 -8 -240 l-8 -94 23 8 c13 5
52 7 88 6 75 -2 86 3 96 42 7 28 7 28 -37 24 l-44 -3 0 115 c0 63 4 157 9 208
8 86 7 92 -10 90 -11 -1 -39 -3 -64 -5z"/>
<path d="M215 498 c0 -112 -2 -216 -5 -233 l-5 -30 145 -3 c131 -2 148 0 178
18 70 43 80 140 20 196 l-33 30 31 30 c61 57 53 142 -16 176 -28 15 -62 18
-175 18 l-140 0 0 -202z m233 136 c31 -22 30 -83 -2 -113 -25 -24 -90 -46
-106 -36 -13 8 -13 80 1 128 9 34 13 37 47 37 21 0 48 -7 60 -16z m-9 -222
c19 -14 27 -30 29 -59 4 -47 -18 -71 -73 -80 -52 -8 -65 12 -65 100 l0 70 42
-6 c23 -3 53 -14 67 -25z"/>
<path d="M890 690 c-162 -19 -239 -98 -240 -243 0 -101 34 -168 105 -204 32
-17 71 -19 293 -14 143 3 144 3 136 24 -5 12 -8 64 -7 115 l2 92 -53 0 -54 0
-4 -61 c-4 -54 -9 -66 -36 -90 -76 -68 -202 -38 -252 62 -40 77 -16 192 50
239 75 53 178 55 232 3 24 -23 32 -25 79 -20 28 4 54 9 57 12 12 11 -26 60
-59 77 -37 19 -127 22 -249 8z"/>
<path d="M1282 675 c-7 -14 -12 -30 -12 -35 0 -6 36 -10 80 -10 44 0 80 -3 80
-7 0 -4 -40 -48 -90 -98 l-90 -90 106 0 c103 0 106 -1 130 -28 30 -35 30 -59
1 -92 -31 -37 -86 -42 -162 -16 -80 28 -85 27 -85 -13 0 -42 9 -46 120 -53
115 -8 190 14 243 68 30 33 37 47 37 80 0 55 -48 105 -109 115 l-42 7 23 24
c13 14 58 55 102 92 l78 66 -83 7 c-46 3 -136 6 -200 7 -115 1 -116 1 -127
-24z"/>
<path d="M1779 672 c120 -83 161 -114 161 -120 0 -4 -25 -8 -56 -8 -85 -2
-142 -54 -151 -137 -7 -57 10 -106 48 -143 27 -25 38 -29 105 -32 114 -6 159
4 204 44 69 63 77 146 22 226 -16 23 -64 76 -105 116 l-75 72 -88 -1 c-87 0
-88 0 -65 -17z m221 -197 c54 -28 48 -120 -11 -170 -35 -29 -49 -31 -89 -10
-61 32 -78 112 -34 164 21 25 33 31 65 31 22 0 53 -7 69 -15z"/>
<path d="M2635 551 c-76 -10 -133 -47 -164 -108 -16 -32 -14 -121 5 -152 28
-48 50 -55 185 -59 l126 -4 27 47 c14 26 26 51 26 56 0 4 -30 -6 -67 -24 -38
-17 -84 -31 -105 -31 -53 -1 -92 31 -96 77 l-3 37 135 0 135 0 6 34 c10 51
-17 101 -66 120 -41 17 -61 18 -144 7z m84 -65 c13 -14 20 -29 16 -35 -8 -14
-155 -15 -155 -1 0 6 11 22 25 35 33 33 83 34 114 1z"/>
</g>
</svg>
