<?xml version="1.0" standalone="no"?>
<!DOCTYPE svg PUBLIC "-//W3C//DTD SVG 20010904//EN"
 "http://www.w3.org/TR/2001/REC-SVG-20010904/DTD/svg10.dtd">
<svg version="1.0" xmlns="http://www.w3.org/2000/svg"
 width="300.000000pt" height="110.000000pt" viewBox="0 0 300.000000 110.000000"
 preserveAspectRatio="xMidYMid meet">
<metadata>
Created by potrace 1.10, written by Peter Selinger 2001-2011
</metadata>
<g transform="translate(0.000000,110.000000) scale(0.100000,-0.100000)"
fill="#000000" stroke="none">
<path d="M2205 843 l-40 -4 0 -192 c-1 -112 -5 -208 -12 -229 l-11 -38 95 3
c73 1 97 -1 101 -11 3 -9 11 -2 23 17 27 44 24 50 -18 40 -21 -5 -53 -9 -72
-9 l-34 0 6 188 c4 103 10 199 13 215 4 15 2 26 -2 25 -5 -1 -27 -3 -49 -5z"/>
<path d="M1590 730 l-34 -30 90 6 c50 4 117 3 150 -1 l59 -8 -50 -12 c-77 -19
-99 -31 -128 -64 -52 -63 -45 -155 17 -209 28 -25 47 -32 101 -37 159 -17 269
26 304 118 28 72 3 179 -46 205 -25 14 -116 29 -248 42 -60 6 -126 13 -145 15
-28 4 -42 -1 -70 -25z m389 -69 c82 -59 55 -198 -50 -251 -70 -36 -135 -22
-176 39 -28 41 -29 89 -4 139 48 94 154 127 230 73z"/>
<path d="M292 743 c-29 -4 -31 -6 -21 -25 12 -23 7 -282 -7 -327 l-7 -24 122
6 c161 9 201 30 201 106 0 31 -38 71 -69 71 -9 1 5 12 31 25 76 40 90 94 39
146 -33 33 -79 38 -173 18 -39 -9 -53 -9 -56 0 -2 6 -9 10 -15 9 -7 0 -27 -3
-45 -5z m208 -33 c54 -54 -2 -132 -104 -146 l-46 -7 0 34 c0 43 31 94 72 119
41 25 53 25 78 0z m-17 -202 c18 -24 18 -30 7 -58 -15 -37 -37 -50 -84 -50
-44 0 -56 20 -56 90 l0 51 56 -3 c48 -3 60 -7 77 -30z"/>
<path d="M832 695 c-78 -19 -127 -55 -147 -109 -23 -60 -14 -106 32 -157 19
-21 31 -39 26 -39 -6 0 -31 -18 -57 -41 -52 -46 -59 -76 -25 -110 19 -19 30
-21 138 -17 101 3 122 6 160 28 72 40 82 67 92 242 4 83 11 165 15 181 6 28 5
29 -24 22 -18 -3 -33 -2 -37 4 -8 15 -107 12 -173 -4z m99 -38 l34 -23 3 -104
c5 -165 -14 -224 -89 -269 -43 -27 -89 -27 -123 0 -31 25 -33 47 -5 83 29 36
64 53 132 61 37 5 57 12 57 21 0 9 -15 12 -53 11 -87 -3 -127 31 -127 109 0
47 24 91 63 114 42 26 66 25 108 -3z"/>
<path d="M1177 684 l-19 -25 74 6 c40 4 78 8 85 10 50 16 -40 -83 -130 -143
-49 -32 -36 -45 26 -25 42 14 52 14 85 1 77 -29 77 -107 0 -136 -36 -14 -41
-13 -90 11 -29 14 -53 25 -54 24 -1 -1 -4 -14 -7 -28 -6 -24 -3 -27 24 -33 54
-11 158 -7 192 8 45 18 87 71 87 107 0 37 -28 65 -81 79 l-41 11 28 30 c15 16
52 48 81 71 l54 43 -48 7 c-27 3 -93 7 -148 7 -96 0 -101 -1 -118 -25z"/>
<path d="M2521 696 c-119 -43 -156 -243 -57 -307 22 -14 217 -26 259 -15 27 6
94 96 72 96 -7 0 -17 -5 -20 -10 -16 -26 -106 -60 -160 -60 -49 0 -59 4 -89
33 -19 17 -37 42 -41 55 l-6 22 168 0 c162 0 193 5 193 32 0 4 -30 5 -67 2
l-68 -5 43 22 c64 33 71 103 12 134 -36 18 -189 19 -239 1z m171 -23 c38 -34
16 -86 -47 -114 -54 -24 -165 -37 -165 -20 0 34 64 111 115 139 30 17 76 14
97 -5z"/>
</g>
</svg>
